<mxfile host="app.diagrams.net" agent="Mozilla/5.0 (Windows NT 10.0; Win64; x64) AppleWebKit/537.36 (KHTML, like Gecko) Chrome/109.0.0.0 Safari/537.36" version="24.9.1">
  <diagram name="PÃ¡gina-1" id="dJhZ-Ty3eR3UqKRXInuT">
    <mxGraphModel dx="3087" dy="1913" grid="1" gridSize="10" guides="1" tooltips="1" connect="1" arrows="1" fold="1" page="1" pageScale="1" pageWidth="827" pageHeight="1169" math="0" shadow="0">
      <root>
        <mxCell id="0" />
        <mxCell id="1" parent="0" />
        <mxCell id="EH9_u7YxMkXBLu6pB8fK-1" value="Comanda" style="swimlane;fontStyle=1;align=center;verticalAlign=top;childLayout=stackLayout;horizontal=1;startSize=26;horizontalStack=0;resizeParent=1;resizeParentMax=0;resizeLast=0;collapsible=1;marginBottom=0;whiteSpace=wrap;html=1;fillColor=#BAC8D3;" vertex="1" parent="1">
          <mxGeometry x="-1410" y="-980" width="250" height="520" as="geometry" />
        </mxCell>
        <mxCell id="EH9_u7YxMkXBLu6pB8fK-2" value="- output: OutputInterface&amp;nbsp;&lt;br&gt;- contadorComanda: AtomicInteger (static)&amp;nbsp;&lt;br&gt;- numeroComanda: String&amp;nbsp;&lt;br&gt;- mesaAssociada: Mesa&amp;nbsp;&lt;br&gt;- pedido: Pedido&amp;nbsp;&lt;br&gt;- valorTotal: double&amp;nbsp;&lt;br&gt;- valorQuitado: double&amp;nbsp;&lt;br&gt;- aberta: boolean&amp;nbsp;&lt;br&gt;- pago: boolean&amp;nbsp;&amp;nbsp;" style="text;strokeColor=none;fillColor=none;align=left;verticalAlign=middle;spacingLeft=4;spacingRight=4;overflow=hidden;rotatable=0;points=[[0,0.5],[1,0.5]];portConstraint=eastwest;whiteSpace=wrap;html=1;" vertex="1" parent="EH9_u7YxMkXBLu6pB8fK-1">
          <mxGeometry y="26" width="250" height="154" as="geometry" />
        </mxCell>
        <mxCell id="EH9_u7YxMkXBLu6pB8fK-3" value="" style="line;strokeWidth=1;fillColor=none;align=left;verticalAlign=middle;spacingTop=-1;spacingLeft=3;spacingRight=3;rotatable=0;labelPosition=right;points=[];portConstraint=eastwest;strokeColor=inherit;" vertex="1" parent="EH9_u7YxMkXBLu6pB8fK-1">
          <mxGeometry y="180" width="250" height="8" as="geometry" />
        </mxCell>
        <mxCell id="EH9_u7YxMkXBLu6pB8fK-4" value="+ Comanda(mesaAssociada: Mesa)&amp;nbsp;&lt;br&gt;+ removerItemPedido(item: ItemMenu): void&amp;nbsp;&lt;br&gt;+ adicionarPedido(pedidoTransferido: Pedido): void&amp;nbsp;&lt;div&gt;+ valorParaPagar(): double&amp;nbsp;&lt;br&gt;+ pagar(valor: double): void&amp;nbsp;&lt;br&gt;+ fecharComanda(): void&amp;nbsp;&lt;br&gt;+ getNumeroComanda(): String&amp;nbsp;&lt;br&gt;+ getMesaAssociada(): Mesa&amp;nbsp;&lt;br&gt;+ setMesaAssociada(mesaAssociada: Mesa): void&lt;br&gt;+ getPedido(): Pedido&amp;nbsp;&lt;br&gt;+ getValorTotal(): double&amp;nbsp;&lt;br&gt;+ setValorTotal(valorTotal: double): void&amp;nbsp;&lt;br&gt;+ getValorQuitado(): double&amp;nbsp;&lt;br&gt;+ isAberta(): boolean&amp;nbsp;&lt;br&gt;+ isPago(): boolean&amp;nbsp;&lt;br&gt;+ imprimirComanda(): String&amp;nbsp;&lt;br&gt;+ adicionarItem(item: ItemMenu): void&amp;nbsp;&lt;br&gt;- calcularValorComanda(): void&amp;nbsp;&lt;br&gt;+ gerarIdComanda(): String (static)&amp;nbsp;&amp;nbsp;&lt;span style=&quot;background-color: initial;&quot;&gt;&amp;nbsp; &amp;nbsp; &amp;nbsp; &amp;nbsp; &amp;nbsp;&amp;nbsp;&lt;/span&gt;&lt;/div&gt;" style="text;strokeColor=none;fillColor=none;align=left;verticalAlign=middle;spacingLeft=4;spacingRight=4;overflow=hidden;rotatable=0;points=[[0,0.5],[1,0.5]];portConstraint=eastwest;whiteSpace=wrap;html=1;" vertex="1" parent="EH9_u7YxMkXBLu6pB8fK-1">
          <mxGeometry y="188" width="250" height="332" as="geometry" />
        </mxCell>
        <mxCell id="EH9_u7YxMkXBLu6pB8fK-5" style="edgeStyle=orthogonalEdgeStyle;rounded=0;orthogonalLoop=1;jettySize=auto;html=1;entryX=0.488;entryY=1.016;entryDx=0;entryDy=0;entryPerimeter=0;dashed=1;dashPattern=8 8;" edge="1" parent="1">
          <mxGeometry relative="1" as="geometry">
            <Array as="points">
              <mxPoint x="-1170" y="-362" />
              <mxPoint x="-1290" y="-362" />
            </Array>
            <mxPoint x="-1170" y="-262" as="sourcePoint" />
            <mxPoint x="-1290" y="-460" as="targetPoint" />
          </mxGeometry>
        </mxCell>
        <mxCell id="EH9_u7YxMkXBLu6pB8fK-6" value="&lt;p style=&quot;margin:0px;margin-top:4px;text-align:center;&quot;&gt;&lt;i&gt;&amp;lt;&amp;lt;Interface&amp;gt;&amp;gt;&lt;/i&gt;&lt;br&gt;&lt;b&gt;RegistroConsumo&lt;/b&gt;&lt;/p&gt;&lt;hr size=&quot;1&quot; style=&quot;border-style:solid;&quot;&gt;&lt;p style=&quot;margin:0px;margin-left:4px;&quot;&gt;+ adicionarPedido( pedidoTransferido: Pedido): void&amp;nbsp;&lt;br&gt;+ removerItemPedido(item: ItemMenu): void&lt;/p&gt;&lt;p style=&quot;margin:0px;margin-left:4px;&quot;&gt;+ valorParaPagar(): double&lt;br&gt;+ pagar(valor: double): void&lt;br&gt;+ fecharComanda(): void&amp;nbsp;&lt;br&gt;+ getNumeroComanda(): String&lt;br&gt;&lt;/p&gt;" style="verticalAlign=top;align=left;overflow=fill;html=1;whiteSpace=wrap;" vertex="1" parent="1">
          <mxGeometry x="-1260" y="-260" width="200" height="180" as="geometry" />
        </mxCell>
      </root>
    </mxGraphModel>
  </diagram>
</mxfile>
